ply
format ascii 1.0
comment VCGLIB generated
element vertex 8
property float x
property float y
property float z
property float nx
property float ny
property float nz
property uchar red
property uchar green
property uchar blue
element face 12
property list uchar int vertex_indices
end_header
749953.1875 4407854.5 0.0 -0.4082482904638631 0.8164965809277261 0.4082482904638631 102 0 255
749953.1875 4407854.5 4.0838470458984375 -0.8164965809277261 0.4082482904638631 0.4082482904638631 102 0 255
749953.1875 4407845.5 0.0 -0.6666666666666666 -0.3333333333333333 0.6666666666666666 102 0 255
749953.1875 4407845.5 4.0838470458984375 -0.3333333333333333 -0.6666666666666666 0.6666666666666666 102 0 255
749972.3125 4407854.5 0.0 0.6666666666666666 0.3333333333333333 0.6666666666666666 102 0 255
749972.3125 4407854.5 4.0838470458984375 0.3333333333333333 0.6666666666666666 0.6666666666666666 102 0 255
749972.3125 4407845.5 0.0 0.4082482904638631 -0.8164965809277261 0.4082482904638631 102 0 255
749972.3125 4407845.5 4.0838470458984375 0.8164965809277261 -0.4082482904638631 0.4082482904638631 102 0 255
3 0 2 4 
3 4 2 6 
3 1 3 5 
3 5 3 7 
3 0 2 1 
3 1 2 3 
3 4 0 5 
3 5 0 1 
3 6 4 7 
3 7 4 5 
3 2 6 3 
3 3 6 7 
